<svg height="512" viewBox="0 0 64 64" width="512" xmlns="http://www.w3.org/2000/svg"><g id="Fill_Outline" data-name="Fill Outline"><path d="m7 45 25 5 25-5v-42l-25 5-25-5z" fill="#f1e8bb"/><path d="m32 8v42l25-5v-42z" fill="#03aaa5"/><path d="m11 20v13l18 4v-13z" fill="#97d7d9"/><path d="m36 24v9l12-3v-9z" fill="#acdee0"/><path d="m41 36v9l13-3v-9z" fill="#acdee0"/><path d="m26.433 62a31.584 31.584 0 0 1 -.554-5.9v-6.715c0-.2.037-.612.037-.612l5.959 1.2v.031l5.5-5.5a2.122 2.122 0 0 1 3 0 2.122 2.122 0 0 1 0 3l-4.5 4.5a7.237 7.237 0 0 1 4 6.472 6.467 6.467 0 0 1 -.684 2.895l-.312.629" fill="#e0ada6"/></g><path d="m57.634 2.227a1.01 1.01 0 0 0 -.83-.207l-24.804 4.96-24.8-4.96a1 1 0 0 0 -1.2.98v42a1 1 0 0 0 .8.98l18.2 3.64v6.48a32.926 32.926 0 0 0 .567 6.081l1.965-.37a31.005 31.005 0 0 1 -.532-5.711v-5.92l4.786.806a1 1 0 0 0 .876-.282l5.456-5.5a1.094 1.094 0 0 1 1.556 0 1.134 1.134 0 0 1 0 1.592l-.8.81-.066.013.009.045-3.607 3.636a1 1 0 0 0 .26 1.6 6.207 6.207 0 0 1 3.418 5.579 5.552 5.552 0 0 1 -.574 2.45l-.314.627 1.791.888.314-.633a7.557 7.557 0 0 0 .783-3.339 8.2 8.2 0 0 0 -3.369-6.664l2.341-2.361.336-.067 17-3.4a1 1 0 0 0 .804-.98v-42a1 1 0 0 0 -.366-.773zm-49.634 1.993 23 4.6v39.96l-23-4.6zm33.979 41.58 12.246-2.826a1 1 0 0 0 .775-.974v-9a1 1 0 0 0 -.378-.782 1.008 1.008 0 0 0 -.847-.193l-13 3a1 1 0 0 0 -.775.975v7.089a3.094 3.094 0 0 0 -1.1-.21 3.073 3.073 0 0 0 -2.2.917l-3.7 3.728v-38.704l23-4.6v39.961l-14.182 2.835a3.141 3.141 0 0 0 .161-1.216zm.021-2.057v-6.943l11-2.539v6.939z"/><path d="m53.8 6.619-18 3.6a1 1 0 0 0 .2 1.981 1.026 1.026 0 0 0 .2-.019l18-3.6a1 1 0 0 0 -.4-1.962z"/><path d="m10.8 8.78 18 3.6a.946.946 0 0 0 .2.019 1 1 0 0 0 .2-1.98l-18-3.6a1 1 0 0 0 -.4 1.961z"/><path d="m53.8 10.619-18 3.6a1 1 0 0 0 .2 1.981 1.026 1.026 0 0 0 .2-.019l18-3.6a1 1 0 0 0 -.392-1.961z"/><path d="m10.815 12.782 17 3.2a.985.985 0 0 0 .185.018 1 1 0 0 0 .184-1.982l-17-3.2a1 1 0 0 0 -.37 1.965z"/><path d="m53.8 14.619-18 3.6a1 1 0 0 0 .2 1.981 1.026 1.026 0 0 0 .2-.019l18-3.6a1 1 0 0 0 -.392-1.961z"/><path d="m11.209 14.822a1 1 0 1 0 -.418 1.955l15 3.2a1 1 0 0 0 .418-1.956z"/><path d="m22.2 43.02-12-2.4a1 1 0 0 0 -.4 1.96l12 2.4a.955.955 0 0 0 .2.02 1 1 0 0 0 .2-1.98z"/><path d="m29.2 40.42-19-3.8a1 1 0 0 0 -.4 1.96l19 3.8a.946.946 0 0 0 .2.019 1 1 0 0 0 .2-1.98z"/><path d="m29.217 23.023-18-4a1 1 0 0 0 -1.217.977v13a1 1 0 0 0 .783.977l18 4a1.067 1.067 0 0 0 .217.023 1 1 0 0 0 1-1v-13a1 1 0 0 0 -.783-.977zm-1.217 12.73-16-3.553v-10.953l16 3.553z"/><path d="m47.758 20.03-12 3a1 1 0 0 0 -.758.97v9a1 1 0 0 0 1.242.97l12-3a1 1 0 0 0 .758-.97v-9a1 1 0 0 0 -1.242-.97zm-.758 9.189-10 2.5v-6.938l10-2.5z"/></svg>