<svg height="512" viewBox="0 0 64 64" width="512" xmlns="http://www.w3.org/2000/svg"><g id="Fill_Outline" data-name="Fill Outline"><path d="m6 8h52v26h-52z" fill="#039791"/><path d="m10 11h4v4h-4z" fill="#06aae9"/><path d="m18 11h4v4h-4z" fill="#82d1df"/><path d="m22 11h4v4h-4z" fill="#06aae9"/><path d="m26 11h4v4h-4z" fill="#82d1df"/><path d="m30 11h4v4h-4z" fill="#06aae9"/><path d="m34 11h4v4h-4z" fill="#82d1df"/><path d="m38 11h4v4h-4z" fill="#06aae9"/><path d="m42 11h4v4h-4z" fill="#82d1df"/><path d="m46 11h4v4h-4z" fill="#06aae9"/><path d="m50 11h4v4h-4z" fill="#82d1df"/><path d="m10 19h4v4h-4z" fill="#82d1df"/><path d="m14 19h4v4h-4z" fill="#06aae9"/><path d="m18 19h4v4h-4z" fill="#82d1df"/><path d="m22 19h4v4h-4z" fill="#06aae9"/><path d="m26 19h4v4h-4z" fill="#82d1df"/><path d="m30 19h4v4h-4z" fill="#06aae9"/><path d="m34 19h4v4h-4z" fill="#82d1df"/><path d="m38 19h4v4h-4z" fill="#06aae9"/><path d="m42 19h4v4h-4z" fill="#82d1df"/><path d="m46 19h4v4h-4z" fill="#06aae9"/><path d="m10 23h4v4h-4z" fill="#06aae9"/><path d="m14 23h4v4h-4z" fill="#82d1df"/><path d="m18 23h4v4h-4z" fill="#06aae9"/><path d="m22 23h4v4h-4z" fill="#82d1df"/><path d="m26 23h4v4h-4z" fill="#06aae9"/><path d="m30 23h4v4h-4z" fill="#82d1df"/><path d="m34 23h4v4h-4z" fill="#06aae9"/><path d="m38 23h4v4h-4z" fill="#82d1df"/><path d="m42 23h4v4h-4z" fill="#06aae9"/><path d="m50 19v4h-4v4h4 4v-4-4z" fill="#0a7b9e"/><path d="m10 27h4v4h-4z" fill="#82d1df"/><path d="m14 27h4v4h-4z" fill="#06aae9"/><path d="m18 27h4v4h-4z" fill="#82d1df"/><path d="m38 27h-4-4-4-4v4h4 4 4 4 4v-4z" fill="#0a7b9e"/><path d="m42 27h4v4h-4z" fill="#82d1df"/><path d="m46 27h4v4h-4z" fill="#06aae9"/><path d="m50 27h4v4h-4z" fill="#06aae9"/><g fill="#e0ada6"><path d="m7 62v-6a13.658 13.658 0 0 1 -4-9.657v-17.343a2 2 0 0 1 2-2 2 2 0 0 1 2 2v6a1 1 0 0 0 1 1 1 1 0 0 0 1-1v-10a2 2 0 0 1 2-2 2 2 0 0 1 2 2v9a1 1 0 0 0 1 1 1 1 0 0 0 1-1v-12a2 2 0 0 1 2-2 2 2 0 0 1 2 2v13a1 1 0 0 0 1 1 1 1 0 0 0 1-1v-10a2 2 0 0 1 2-2 2 2 0 0 1 2 2v16l2.14-3.567a7.465 7.465 0 0 1 2.249-2.363 1.93 1.93 0 0 1 2.68.534l.025.037a1.983 1.983 0 0 1 -.243 2.509l-.691.69a4.53 4.53 0 0 0 -1.309 2.795l-.257 2.826a15.849 15.849 0 0 1 -5.638 10.739l-.956.8v6"/><path d="m7 62v-6a13.658 13.658 0 0 1 -4-9.657v-17.343a2 2 0 0 1 2-2 2 2 0 0 1 2 2v6a1 1 0 0 0 1 1 1 1 0 0 0 1-1v-10a2 2 0 0 1 2-2 2 2 0 0 1 2 2v9a1 1 0 0 0 1 1 1 1 0 0 0 1-1v-12a2 2 0 0 1 2-2 2 2 0 0 1 2 2v13a1 1 0 0 0 1 1 1 1 0 0 0 1-1v-10a2 2 0 0 1 2-2 2 2 0 0 1 2 2v16l2.14-3.567a7.465 7.465 0 0 1 2.249-2.363 1.93 1.93 0 0 1 2.68.534l.025.037a1.983 1.983 0 0 1 -.243 2.509l-.691.69a4.53 4.53 0 0 0 -1.309 2.795l-.257 2.826a15.849 15.849 0 0 1 -5.638 10.739l-.956.8v6"/><path d="m57 62v-9a13.658 13.658 0 0 0 4-9.657v-17.343a2 2 0 0 0 -2-2 2 2 0 0 0 -2 2v6a1 1 0 0 1 -1 1 1 1 0 0 1 -1-1v-10a2 2 0 0 0 -2-2 2 2 0 0 0 -2 2v9a1 1 0 0 1 -1 1 1 1 0 0 1 -1-1v-12a2 2 0 0 0 -2-2 2 2 0 0 0 -2 2v13a1 1 0 0 1 -1 1 1 1 0 0 1 -1-1v-10a2 2 0 0 0 -2-2 2 2 0 0 0 -2 2v16l-2.14-3.567a7.465 7.465 0 0 0 -2.249-2.363 1.93 1.93 0 0 0 -2.68.534l-.025.037a1.983 1.983 0 0 0 .243 2.509l.691.69a4.53 4.53 0 0 1 1.309 2.795l.257 2.826a15.849 15.849 0 0 0 5.638 10.739l.956.8v9"/><path d="m57 62v-9a13.658 13.658 0 0 0 4-9.657v-17.343a2 2 0 0 0 -2-2 2 2 0 0 0 -2 2v6a1 1 0 0 1 -1 1 1 1 0 0 1 -1-1v-10a2 2 0 0 0 -2-2 2 2 0 0 0 -2 2v9a1 1 0 0 1 -1 1 1 1 0 0 1 -1-1v-12a2 2 0 0 0 -2-2 2 2 0 0 0 -2 2v13a1 1 0 0 1 -1 1 1 1 0 0 1 -1-1v-10a2 2 0 0 0 -2-2 2 2 0 0 0 -2 2v16l-2.14-3.567a7.465 7.465 0 0 0 -2.249-2.363 1.93 1.93 0 0 0 -2.68.534l-.025.037a1.983 1.983 0 0 0 .243 2.509l.691.69a4.53 4.53 0 0 1 1.309 2.795l.257 2.826a15.849 15.849 0 0 0 5.638 10.739l.956.8v9"/></g></g><path d="m14 10h-4a1 1 0 0 0 -1 1v4a1 1 0 0 0 1 1h4a1 1 0 0 0 1-1v-4a1 1 0 0 0 -1-1zm-1 4h-2v-2h2z"/><path d="m54 16a1 1 0 0 0 1-1v-4a1 1 0 0 0 -1-1h-36a1 1 0 0 0 -1 1v4a1 1 0 0 0 1 1zm-1-2h-2v-2h2zm-34-2h2v2h-2zm4 0h2v2h-2zm4 0h2v2h-2zm4 0h2v2h-2zm4 0h2v2h-2zm4 0h2v2h-2zm4 0h2v2h-2zm4 0h2v2h-2z"/><path d="m59 23v-15a1 1 0 0 0 -1-1h-25v-5h-2v5h-25a1 1 0 0 0 -1 1v18a3 3 0 0 0 -3 3v17.343a14.553 14.553 0 0 0 4 10.063v5.594h2v-6a1 1 0 0 0 -.293-.707 12.573 12.573 0 0 1 -3.707-8.95v-17.343a1 1 0 0 1 2 0v6a2 2 0 0 0 4 0v-10a1 1 0 0 1 2 0v9a2 2 0 0 0 4 0v-12a1 1 0 0 1 2 0v13a2 2 0 0 0 4 0v-10a1 1 0 0 1 2 0v16a1 1 0 0 0 1.857.515l2.143-3.569a6.528 6.528 0 0 1 1.944-2.046.924.924 0 0 1 .7-.139.953.953 0 0 1 .617.433.978.978 0 0 1 -.116 1.246l-.693.692a5.545 5.545 0 0 0 -1.6 3.411l-.252 2.827a14.756 14.756 0 0 1 -5.284 10.065l-.956.8a1 1 0 0 0 -.36.765v6h2v-5.531l.6-.5a16.749 16.749 0 0 0 5.994-11.42l.257-2.827a3.533 3.533 0 0 1 1.019-2.178l.692-.689a2.9 2.9 0 0 0 .5-.679 3.352 3.352 0 0 1 .1.547l.257 2.826a16.749 16.749 0 0 0 5.981 11.423l.6.5v8.528h2v-9a1 1 0 0 0 -.359-.769l-.956-.8a14.756 14.756 0 0 1 -5.285-10.061l-.256-2.825a5.545 5.545 0 0 0 -1.6-3.412l-.692-.691a.991.991 0 0 1 -.092-1.283.92.92 0 0 1 .592-.4.93.93 0 0 1 .7.139 6.513 6.513 0 0 1 1.948 2.049l2.141 3.568a1 1 0 0 0 1.859-.515v-16a1 1 0 0 1 2 0v10a2 2 0 0 0 4 0v-13a1 1 0 0 1 2 0v12a2 2 0 0 0 4 0v-9a1 1 0 0 1 2 0v10a2 2 0 0 0 4 0v-6a1 1 0 0 1 2 0v17.343a12.573 12.573 0 0 1 -3.707 8.95 1 1 0 0 0 -.293.707v9h2v-8.594a14.553 14.553 0 0 0 4-10.063v-17.343a3 3 0 0 0 -3-3zm-46-1h-2v-2h2zm1 3a2.966 2.966 0 0 0 -.184-1h.184zm6 0v-3a2.981 2.981 0 0 0 -.78-2h1.78v2.78a2.985 2.985 0 0 0 -1 2.22zm3-5h2v2h-2zm4 0h2v2h-2zm4 0h2v2h-2zm4 0h2v2h-2zm-3.926 12.086a2.992 2.992 0 0 0 -.405.914h-4.669v-1h5.144c-.022.03-.044.054-.07.086zm5.926-6.086h-2v-2h2zm-4 0h-2v-2h2zm-4 0h-2v-2h2zm-3 4v-2h12v2zm.283 6.918-.283.472v-2.39h1.876a8.484 8.484 0 0 0 -1.593 1.918zm9.841-4.918h1.876v1h-.932a8.419 8.419 0 0 0 -.944-1zm7.1-12h.776v2a2.981 2.981 0 0 0 -.78-2zm12.776 6v-4a3 3 0 0 0 -6 0v-3a2.993 2.993 0 0 0 -5.816-1h-34.184a1 1 0 0 0 -1 1v3.78a2.985 2.985 0 0 0 -1 2.22v4a2.985 2.985 0 0 0 -1-2.22v-17.78h50v14.78a2.985 2.985 0 0 0 -1 2.22z"/></svg>