<svg height="512" viewBox="0 0 64 64" width="512" xmlns="http://www.w3.org/2000/svg"><g id="Fill_Outline" data-name="Fill Outline"><path d="m27 37h10v15h-10z" fill="#f7931e"/><path d="m32 52v-14h5v14" fill="#f15a24"/><path d="m27 52 2.222 4h5.556l2.222-4z" fill="#998675"/><path d="m32 61 2.778-5h-5.556z" fill="#333"/><path d="m53.7 18.859a8.672 8.672 0 0 0 .179-1.731 9.516 9.516 0 0 0 -8.927-9.21 8.341 8.341 0 0 0 -7.744-4.918 7.82 7.82 0 0 0 -5.208 1.949 7.82 7.82 0 0 0 -5.208-1.949 8.341 8.341 0 0 0 -7.74 4.918 9.516 9.516 0 0 0 -8.927 9.21 8.672 8.672 0 0 0 .179 1.731 10.345 10.345 0 0 0 -3.304 7.526c0 5.915 5.13 10.715 11.458 10.715.369 0 .732-.02 1.091-.052a8.437 8.437 0 0 0 7.243 3.952 8.862 8.862 0 0 0 5.208-1.949 8.862 8.862 0 0 0 5.208 1.949 8.437 8.437 0 0 0 7.243-3.949c.359.032.722.052 1.091.052 6.328-.003 11.458-4.803 11.458-10.718a10.345 10.345 0 0 0 -3.3-7.526z" fill="#82d1df"/><path d="m29 34h6v3h-6z" fill="#f4e09c"/><path d="m38.82 22.3-.685 1.716a37.42 37.42 0 0 0 -3.026 9.328l-.109.656h-6l-.109-.654a37.42 37.42 0 0 0 -3.026-9.328l-.685-1.7-.109-.318a7.229 7.229 0 0 1 .062-2.386 7 7 0 0 1 13.796 2.386z" fill="#fbcc34"/></g><path d="m54.771 18.517a9.566 9.566 0 0 0 .1-1.389 10.422 10.422 0 0 0 -9.253-10.139 9.344 9.344 0 0 0 -8.41-4.989 8.6 8.6 0 0 0 -5.208 1.687 8.6 8.6 0 0 0 -5.208-1.687 9.344 9.344 0 0 0 -8.41 4.989 10.422 10.422 0 0 0 -9.257 10.139 9.566 9.566 0 0 0 .1 1.389 11.261 11.261 0 0 0 -3.225 7.868c0 6.461 5.589 11.715 12.458 11.715.194 0 .386-.005.578-.014a9.471 9.471 0 0 0 6.964 3.867v10.047.018a.978.978 0 0 0 .065.323c.01.028.02.055.032.082s.014.043.025.062l5 9a1 1 0 0 0 1.748 0l5-9c.011-.019.015-.042.025-.062s.022-.054.032-.082a.978.978 0 0 0 .073-.323c0-.006 0-.012 0-.018v-10.047a9.471 9.471 0 0 0 6.964-3.864c.192.009.384.014.578.014 6.869-.003 12.458-5.257 12.458-11.718a11.261 11.261 0 0 0 -3.229-7.868zm-18.771 32.483h-3v-10.13a9.563 9.563 0 0 0 3 1.03zm-5 0h-3v-9.1a9.563 9.563 0 0 0 3-1.027zm1 7.94-1.078-1.94h2.156zm2.189-3.94h-4.378l-1.111-2h6.6zm11.353-18.9c-.338 0-.671-.019-1-.048a.978.978 0 0 0 -.541.1v-.152a3 3 0 0 1 -3-3h-2.001a4.992 4.992 0 0 0 3.606 4.778 7.6 7.6 0 0 1 -5.398 2.222 7.971 7.971 0 0 1 -4.608-1.749 1 1 0 0 0 -1.2 0 7.971 7.971 0 0 1 -4.608 1.749 7.6 7.6 0 0 1 -5.4-2.222 4.992 4.992 0 0 0 3.608-4.778h-2a3 3 0 0 1 -3 3v.156a.981.981 0 0 0 -.541-.1c-.33.029-.663.048-1 .048-5.767-.004-10.459-4.361-10.459-9.719a9.127 9.127 0 0 1 1.416-4.862 8.045 8.045 0 0 0 5.3 5.145l.57-1.916a6.027 6.027 0 0 1 -4.242-5.23.993.993 0 0 0 .241-.861 7.805 7.805 0 0 1 -.159-1.533 8.345 8.345 0 0 1 6.619-7.975 8.42 8.42 0 0 0 4.555 8.613l.258.129.894-1.79-.258-.128a6.4 6.4 0 0 1 -3.2-7.7 7.307 7.307 0 0 1 6.798-4.277 6.788 6.788 0 0 1 4.572 1.72 1 1 0 0 0 1.272 0 6.788 6.788 0 0 1 4.572-1.72 7.307 7.307 0 0 1 6.8 4.274 6.4 6.4 0 0 1 -3.2 7.7l-.259.128.894 1.79.259-.129a8.42 8.42 0 0 0 4.55-8.613 8.345 8.345 0 0 1 6.619 7.975 7.805 7.805 0 0 1 -.159 1.533.993.993 0 0 0 .241.861 6.027 6.027 0 0 1 -4.242 5.23l.57 1.916a8.045 8.045 0 0 0 5.3-5.145 9.127 9.127 0 0 1 1.419 4.865c0 5.358-4.692 9.715-10.458 9.715z"/><path d="m39.76 22.643.109-.3a.93.93 0 0 0 .05-.2 8.075 8.075 0 0 0 .081-1.143 8 8 0 0 0 -15.849-1.575 8.221 8.221 0 0 0 -.07 2.717.985.985 0 0 0 .044.184l.821 2.085a36.369 36.369 0 0 1 2.959 9.1l.095.571v2.918a1 1 0 0 0 1 1h6a1 1 0 0 0 1-1v-2.918l.095-.571a36.456 36.456 0 0 1 2.969-9.123l.685-1.716zm-5.76 13.357h-4v-1h4zm3.952-14.239-.736 1.863a38.306 38.306 0 0 0 -3.063 9.376h-1.145l.072-8.607 1.656-1.8-1.472-1.353-1.211 1.316-1.346-1.346-1.414 1.414 1.787 1.787-.072 8.589h-1.161a38.182 38.182 0 0 0 -3.055-9.355l-.667-1.654-.077-.223a6.257 6.257 0 0 1 .067-1.966 5.95 5.95 0 0 1 4.671-4.684 6.061 6.061 0 0 1 5.027 1.249 5.985 5.985 0 0 1 2.187 4.633 6.063 6.063 0 0 1 -.048.761z"/><path d="m31 7h2v4h-2z"/><path d="m38.586 10.414h4v2h-4z" transform="matrix(.707 -.707 .707 .707 3.816 32.042)"/><path d="m43 19h4v2h-4z"/><path d="m40.414 27.414h2v4h-2z" transform="matrix(.707 -.707 .707 .707 -8.668 37.904)"/><path d="m20.586 28.414h4v2h-4z" transform="matrix(.707 -.707 .707 .707 -14.184 24.586)"/><path d="m17 19h4v2h-4z"/><path d="m22.414 9.414h2v4h-2z" transform="matrix(.707 -.707 .707 .707 -1.212 19.902)"/></svg>