<svg width="85" height="22" viewBox="0 0 85 22" fill="none" xmlns="http://www.w3.org/2000/svg">
<g clip-path="url(#clip0)">
<path d="M3.404 18.044C3.156 18.044 2.928 17.976 2.72 17.84C2.512 17.712 2.408 17.552 2.408 17.36C2.408 17.224 2.46 17 2.564 16.688C3.18 14.8 3.676 13.328 4.052 12.272C4.428 11.216 4.888 10.084 5.432 8.876C5.024 8.972 4.604 9.132 4.172 9.356C3.98 9.452 3.864 9.5 3.824 9.5C3.752 9.5 3.656 9.444 3.536 9.332C3.424 9.212 3.368 9.112 3.368 9.032C4.44 8.584 5.38 8.36 6.188 8.36C6.716 8.36 7.236 8.452 7.748 8.636C8.268 8.82 8.696 9.092 9.032 9.452C9.368 9.804 9.536 10.224 9.536 10.712C9.536 11.48 9.228 12.072 8.612 12.488C7.996 12.904 7.32 13.184 6.584 13.328C5.856 13.464 5.24 13.532 4.736 13.532H4.664L3.992 15.944C3.824 16.584 3.628 17.284 3.404 18.044ZM4.772 13.16C5.412 13.12 6.016 12.996 6.584 12.788C7.16 12.58 7.628 12.284 7.988 11.9C8.356 11.516 8.54 11.056 8.54 10.52C8.54 9.968 8.328 9.544 7.904 9.248C7.48 8.952 6.964 8.796 6.356 8.78C5.876 9.708 5.348 11.168 4.772 13.16ZM9.66481 17.36C9.31281 17.36 9.05681 17.244 8.89681 17.012C8.73681 16.78 8.65681 16.472 8.65681 16.088C8.65681 15.352 8.90481 14.368 9.40081 13.136C9.90481 11.904 10.4688 10.8 11.0928 9.824C11.7168 8.848 12.1768 8.36 12.4728 8.36C12.6088 8.36 12.7248 8.468 12.8208 8.684C12.9168 8.892 12.9688 9.104 12.9768 9.32C12.9768 9.688 12.8288 10.228 12.5328 10.94C12.2368 11.644 11.8368 12.36 11.3328 13.088C10.8368 13.816 10.3048 14.404 9.73681 14.852C9.64881 15.348 9.60481 15.724 9.60481 15.98C9.60481 16.26 9.64881 16.468 9.73681 16.604C9.83281 16.74 9.96081 16.808 10.1208 16.808C10.4008 16.808 10.6968 16.624 11.0088 16.256C11.3288 15.88 11.6128 15.428 11.8608 14.9L12.1488 15.056C11.7968 15.784 11.4088 16.352 10.9848 16.76C10.5608 17.16 10.1208 17.36 9.66481 17.36ZM9.95281 14.108C10.3848 13.644 10.7888 13.1 11.1648 12.476C11.5488 11.852 11.8528 11.26 12.0768 10.7C12.3088 10.14 12.4248 9.724 12.4248 9.452C12.3208 9.452 12.1088 9.696 11.7888 10.184C11.4768 10.672 11.1448 11.28 10.7928 12.008C10.4488 12.728 10.1688 13.428 9.95281 14.108ZM12.4862 17.36C12.2222 17.36 12.0022 17.236 11.8262 16.988C11.6502 16.74 11.5622 16.448 11.5622 16.112C11.5622 15.824 11.6262 15.464 11.7542 15.032C11.8822 14.6 12.0302 14.224 12.1982 13.904C12.3742 13.584 12.5262 13.424 12.6542 13.424C12.7102 13.424 12.7942 13.456 12.9062 13.52C13.0262 13.576 13.1302 13.648 13.2182 13.736C13.0502 13.984 12.8742 14.34 12.6902 14.804C12.5142 15.268 12.4262 15.668 12.4262 16.004C12.4262 16.156 12.4462 16.316 12.4862 16.484C12.5342 16.644 12.6342 16.724 12.7862 16.724C13.0822 16.724 13.4342 16.396 13.8422 15.74C14.2582 15.076 14.6142 14.404 14.9102 13.724C15.3902 13.804 15.6302 13.94 15.6302 14.132C15.6302 14.148 15.5822 14.264 15.4862 14.48C15.3182 14.872 15.1742 15.236 15.0542 15.572C14.9342 15.908 14.8742 16.2 14.8742 16.448C14.8742 16.728 14.9822 16.868 15.1982 16.868C15.3662 16.868 15.5662 16.792 15.7982 16.64C16.0382 16.48 16.2822 16.256 16.5302 15.968C16.7782 15.672 16.9942 15.332 17.1782 14.948L17.3582 15.092C17.1822 15.524 16.9542 15.912 16.6742 16.256C16.3942 16.6 16.0902 16.868 15.7622 17.06C15.4422 17.26 15.1342 17.36 14.8382 17.36C14.4862 17.36 14.2582 17.24 14.1542 17C14.0582 16.752 14.0102 16.424 14.0102 16.016C13.7382 16.432 13.4822 16.76 13.2422 17C13.0022 17.24 12.7502 17.36 12.4862 17.36ZM23.1471 17.372C22.8511 17.372 22.6231 17.284 22.4631 17.108C22.3031 16.932 22.2231 16.708 22.2231 16.436C22.2231 16.308 22.2391 16.168 22.2711 16.016C22.3111 15.856 22.3551 15.708 22.4031 15.572C22.5071 15.244 22.5591 15.004 22.5591 14.852C22.5591 14.612 22.4671 14.492 22.2831 14.492C22.1071 14.492 21.9031 14.62 21.6711 14.876C21.4391 15.132 21.1271 15.552 20.7351 16.136C20.6391 16.28 20.4951 16.524 20.3031 16.868L20.0751 17.276C19.9311 17.276 19.7751 17.248 19.6071 17.192C19.4391 17.136 19.3551 17.06 19.3551 16.964C19.3551 16.884 19.4391 16.628 19.6071 16.196C19.7671 15.78 19.8951 15.416 19.9911 15.104C20.0951 14.792 20.1471 14.532 20.1471 14.324C20.1471 14.084 20.0631 13.964 19.8951 13.964C19.6791 13.964 19.3991 14.136 19.0551 14.48C18.7111 14.816 18.3711 15.248 18.0351 15.776C17.6991 16.296 17.4391 16.812 17.2551 17.324C17.1111 17.324 16.9431 17.284 16.7511 17.204C16.5511 17.124 16.4511 17.056 16.4511 17L17.2191 13.928C17.2431 13.84 17.3271 13.764 17.4711 13.7C17.6231 13.628 17.7591 13.592 17.8791 13.592C17.9991 13.592 18.0951 13.628 18.1671 13.7C18.2471 13.772 18.2871 13.868 18.2871 13.988C18.2871 14.116 18.2311 14.404 18.1191 14.852C18.5031 14.324 18.8991 13.888 19.3071 13.544C19.7151 13.192 20.0991 13.016 20.4591 13.016C20.7311 13.016 20.9231 13.112 21.0351 13.304C21.1551 13.496 21.2151 13.736 21.2151 14.024C21.2151 14.176 21.1991 14.32 21.1671 14.456C21.1351 14.584 21.0831 14.76 21.0111 14.984C21.5711 14.16 22.1511 13.748 22.7511 13.748C23.0391 13.748 23.2471 13.836 23.3751 14.012C23.5111 14.18 23.5791 14.392 23.5791 14.648C23.5791 14.904 23.4991 15.264 23.3391 15.728C23.3311 15.76 23.2991 15.864 23.2431 16.04C23.1951 16.216 23.1711 16.36 23.1711 16.472C23.1711 16.688 23.2711 16.796 23.4711 16.796C23.7591 16.796 24.0391 16.612 24.3111 16.244C24.5911 15.876 24.8511 15.436 25.0911 14.924L25.2951 15.176C25.0631 15.776 24.7631 16.292 24.3951 16.724C24.0351 17.156 23.6191 17.372 23.1471 17.372ZM26.185 17.528C25.681 17.528 25.289 17.392 25.009 17.12C24.729 16.848 24.589 16.5 24.589 16.076C24.589 15.612 24.745 15.112 25.057 14.576C25.369 14.032 25.769 13.58 26.257 13.22C26.745 12.852 27.225 12.668 27.697 12.668C27.945 12.668 28.153 12.732 28.321 12.86C28.489 12.98 28.573 13.184 28.573 13.472C28.573 13.856 28.425 14.22 28.129 14.564C27.833 14.9 27.449 15.176 26.977 15.392C26.513 15.608 26.037 15.744 25.549 15.8C25.533 15.88 25.525 15.972 25.525 16.076C25.525 16.284 25.581 16.492 25.693 16.7C25.813 16.908 26.065 17.012 26.449 17.012C26.937 17.012 27.433 16.816 27.937 16.424C28.449 16.024 28.861 15.528 29.173 14.936L29.413 15.128C29.093 15.848 28.633 16.428 28.033 16.868C27.441 17.308 26.825 17.528 26.185 17.528ZM25.681 15.356C25.969 15.324 26.289 15.208 26.641 15.008C27.001 14.808 27.305 14.564 27.553 14.276C27.801 13.98 27.925 13.692 27.925 13.412C27.925 13.324 27.909 13.264 27.877 13.232C27.845 13.2 27.793 13.184 27.721 13.184C27.489 13.184 27.233 13.296 26.953 13.52C26.681 13.736 26.429 14.012 26.197 14.348C25.965 14.684 25.793 15.02 25.681 15.356ZM32.948 17.168C33.652 14.92 34.408 12.4 35.216 9.608C35.272 9.384 35.3 9.228 35.3 9.14C35.3 9.076 35.288 9.032 35.264 9.008C35.248 8.984 35.208 8.972 35.144 8.972C34.928 8.972 34.72 9.084 34.52 9.308C34.32 9.524 34.156 9.788 34.028 10.1C33.908 10.404 33.848 10.676 33.848 10.916C33.848 11.108 33.888 11.296 33.968 11.48C33.632 11.48 33.388 11.412 33.236 11.276C33.084 11.132 33.008 10.94 33.008 10.7C33.008 10.356 33.148 10 33.428 9.632C33.708 9.264 34.044 8.96 34.436 8.72C34.836 8.48 35.188 8.36 35.492 8.36C35.836 8.36 36.112 8.524 36.32 8.852C36.528 9.18 36.684 9.592 36.788 10.088C36.9 10.584 37.02 11.26 37.148 12.116C37.292 13.132 37.4 13.872 37.472 14.336C37.544 14.792 37.62 15.224 37.7 15.632L38.156 13.724C38.468 12.372 38.724 11.328 38.924 10.592C39.124 9.848 39.32 9.312 39.512 8.984C39.752 8.56 40.076 8.348 40.484 8.348C40.196 9.092 39.864 10.124 39.488 11.444C39.112 12.764 38.792 14.048 38.528 15.296C38.264 16.536 38.132 17.452 38.132 18.044C37.82 18.044 37.572 17.968 37.388 17.816C37.204 17.672 37.068 17.404 36.98 17.012C36.884 16.604 36.552 14.828 35.984 11.684C35.92 11.332 35.868 11.048 35.828 10.832C35.788 10.616 35.76 10.452 35.744 10.34C35.08 12.756 34.596 14.46 34.292 15.452C33.988 16.436 33.72 17.112 33.488 17.48C33.256 17.856 32.984 18.044 32.672 18.044L32.948 17.168ZM40.585 17.384C40.257 17.384 40.017 17.276 39.865 17.06C39.721 16.844 39.649 16.576 39.649 16.256C39.649 15.92 39.717 15.572 39.853 15.212C39.997 14.852 40.181 14.552 40.405 14.312C40.629 14.072 40.857 13.952 41.089 13.952C41.185 13.952 41.309 13.984 41.461 14.048C41.509 13.68 41.637 13.376 41.845 13.136C42.061 12.896 42.361 12.776 42.745 12.776C43.065 12.776 43.301 12.868 43.453 13.052C43.605 13.228 43.681 13.46 43.681 13.748C43.681 14.028 43.605 14.348 43.453 14.708C43.309 15.068 43.121 15.428 42.889 15.788C42.985 15.836 43.097 15.86 43.225 15.86C43.449 15.86 43.689 15.788 43.945 15.644C44.201 15.492 44.397 15.264 44.533 14.96L44.749 15.116C44.581 15.5 44.353 15.792 44.065 15.992C43.785 16.192 43.493 16.292 43.189 16.292C43.005 16.292 42.805 16.256 42.589 16.184C42.293 16.536 41.969 16.824 41.617 17.048C41.265 17.272 40.921 17.384 40.585 17.384ZM42.481 15.536C42.681 15.24 42.845 14.932 42.973 14.612C43.109 14.292 43.177 14.004 43.177 13.748C43.177 13.396 43.065 13.22 42.841 13.22C42.737 13.22 42.629 13.272 42.517 13.376C42.405 13.48 42.313 13.62 42.241 13.796C42.169 13.964 42.133 14.152 42.133 14.36C42.133 14.544 42.165 14.756 42.229 14.996C42.293 15.228 42.377 15.408 42.481 15.536ZM41.017 16.772C41.161 16.772 41.337 16.692 41.545 16.532C41.753 16.372 41.961 16.168 42.169 15.92C41.713 15.52 41.473 14.932 41.449 14.156C41.353 14.204 41.237 14.352 41.101 14.6C40.965 14.848 40.849 15.124 40.753 15.428C40.657 15.732 40.609 15.996 40.609 16.22C40.609 16.588 40.745 16.772 41.017 16.772ZM50.5338 17.372C50.2378 17.372 50.0098 17.284 49.8498 17.108C49.6898 16.932 49.6098 16.708 49.6098 16.436C49.6098 16.308 49.6258 16.168 49.6578 16.016C49.6978 15.856 49.7418 15.708 49.7898 15.572C49.8938 15.244 49.9458 15.004 49.9458 14.852C49.9458 14.612 49.8538 14.492 49.6698 14.492C49.4938 14.492 49.2898 14.62 49.0578 14.876C48.8258 15.132 48.5138 15.552 48.1218 16.136C48.0258 16.28 47.8818 16.524 47.6898 16.868L47.4618 17.276C47.3178 17.276 47.1618 17.248 46.9938 17.192C46.8258 17.136 46.7418 17.06 46.7418 16.964C46.7418 16.884 46.8258 16.628 46.9938 16.196C47.1538 15.78 47.2818 15.416 47.3778 15.104C47.4818 14.792 47.5338 14.532 47.5338 14.324C47.5338 14.084 47.4498 13.964 47.2818 13.964C47.0658 13.964 46.7858 14.136 46.4418 14.48C46.0978 14.816 45.7578 15.248 45.4218 15.776C45.0858 16.296 44.8258 16.812 44.6418 17.324C44.4978 17.324 44.3298 17.284 44.1378 17.204C43.9378 17.124 43.8378 17.056 43.8378 17L44.6058 13.928C44.6298 13.84 44.7138 13.764 44.8578 13.7C45.0098 13.628 45.1458 13.592 45.2658 13.592C45.3858 13.592 45.4818 13.628 45.5538 13.7C45.6338 13.772 45.6738 13.868 45.6738 13.988C45.6738 14.116 45.6178 14.404 45.5058 14.852C45.8898 14.324 46.2858 13.888 46.6938 13.544C47.1018 13.192 47.4858 13.016 47.8458 13.016C48.1178 13.016 48.3098 13.112 48.4218 13.304C48.5418 13.496 48.6018 13.736 48.6018 14.024C48.6018 14.176 48.5858 14.32 48.5538 14.456C48.5218 14.584 48.4698 14.76 48.3978 14.984C48.9578 14.16 49.5378 13.748 50.1378 13.748C50.4258 13.748 50.6338 13.836 50.7618 14.012C50.8978 14.18 50.9658 14.392 50.9658 14.648C50.9658 14.904 50.8858 15.264 50.7258 15.728C50.7178 15.76 50.6858 15.864 50.6298 16.04C50.5818 16.216 50.5578 16.36 50.5578 16.472C50.5578 16.688 50.6578 16.796 50.8578 16.796C51.1458 16.796 51.4258 16.612 51.6978 16.244C51.9778 15.876 52.2378 15.436 52.4778 14.924L52.6818 15.176C52.4498 15.776 52.1498 16.292 51.7818 16.724C51.4218 17.156 51.0058 17.372 50.5338 17.372ZM52.8517 17.564C52.5717 17.564 52.3397 17.472 52.1557 17.288C51.9637 17.104 51.8677 16.844 51.8677 16.508C51.8677 16.044 52.0357 15.524 52.3717 14.948C52.7157 14.372 53.1517 13.884 53.6797 13.484C54.2077 13.084 54.7357 12.884 55.2637 12.884C55.6157 12.884 55.9077 12.976 56.1397 13.16C56.3797 13.336 56.4997 13.564 56.4997 13.844C56.4997 14.212 56.2717 14.404 55.8157 14.42C56.1037 14.508 56.2477 14.628 56.2477 14.78C56.2477 14.836 56.2197 14.92 56.1637 15.032C56.1077 15.144 56.0437 15.26 55.9717 15.38C55.8437 15.588 55.7437 15.772 55.6717 15.932C55.5997 16.084 55.5637 16.228 55.5637 16.364C55.5637 16.484 55.5917 16.588 55.6477 16.676C55.7117 16.756 55.8037 16.796 55.9237 16.796C56.1477 16.796 56.4317 16.64 56.7757 16.328C57.1277 16.016 57.4677 15.548 57.7957 14.924L58.0237 15.152C57.7277 15.816 57.3597 16.352 56.9197 16.76C56.4797 17.16 56.0357 17.36 55.5877 17.36C55.2677 17.36 55.0197 17.252 54.8437 17.036C54.6757 16.828 54.5917 16.588 54.5917 16.316C54.2317 16.748 53.9237 17.064 53.6677 17.264C53.4117 17.464 53.1397 17.564 52.8517 17.564ZM53.1037 16.952C53.3837 16.952 53.7077 16.752 54.0757 16.352C54.4517 15.944 54.8757 15.416 55.3477 14.768L55.5877 14.444C55.6117 14.404 55.6437 14.384 55.6837 14.384L55.7317 14.396C55.7717 14.268 55.7917 14.12 55.7917 13.952C55.7917 13.536 55.6237 13.328 55.2877 13.328C54.9357 13.328 54.5677 13.516 54.1837 13.892C53.7997 14.268 53.4757 14.716 53.2117 15.236C52.9557 15.756 52.8277 16.2 52.8277 16.568C52.8277 16.704 52.8477 16.804 52.8877 16.868C52.9357 16.924 53.0077 16.952 53.1037 16.952ZM58.3397 17.36C58.0757 17.36 57.8397 17.268 57.6317 17.084C57.4237 16.9 57.3197 16.632 57.3197 16.28C57.3197 15.832 57.4917 15.316 57.8357 14.732C58.1797 14.14 58.6157 13.636 59.1437 13.22C59.6717 12.804 60.1997 12.596 60.7277 12.596C61.1197 12.596 61.3157 12.724 61.3157 12.98C61.3157 13.108 61.2677 13.2 61.1717 13.256C61.1077 13.168 60.9677 13.124 60.7517 13.124C60.3437 13.124 59.9557 13.304 59.5877 13.664C59.2197 14.016 58.9197 14.432 58.6877 14.912C58.4637 15.392 58.3517 15.792 58.3517 16.112C58.3517 16.272 58.3837 16.396 58.4477 16.484C58.5117 16.572 58.6077 16.616 58.7357 16.616C58.9597 16.616 59.2197 16.488 59.5157 16.232C59.8197 15.968 60.1277 15.596 60.4397 15.116C60.7597 14.636 61.0437 14.076 61.2917 13.436C61.9157 11.836 62.4437 10.592 62.8757 9.704C63.3077 8.808 63.6837 8.36 64.0037 8.36C64.0917 8.36 64.1677 8.396 64.2317 8.468C64.3037 8.532 64.3397 8.616 64.3397 8.72C64.3397 8.856 64.2757 9.064 64.1477 9.344C64.0277 9.624 63.8197 10.064 63.5237 10.664C62.9397 11.848 62.4757 12.884 62.1317 13.772C61.7877 14.652 61.6157 15.452 61.6157 16.172C61.6157 16.364 61.6317 16.496 61.6637 16.568C61.7037 16.632 61.7677 16.664 61.8557 16.664C62.1277 16.664 62.4397 16.504 62.7917 16.184C63.1437 15.864 63.4517 15.432 63.7157 14.888L63.9437 15.08C63.6797 15.736 63.3157 16.272 62.8517 16.688C62.3877 17.104 61.9277 17.312 61.4717 17.312C61.1597 17.312 60.9357 17.216 60.7997 17.024C60.6637 16.832 60.5957 16.58 60.5957 16.268C60.5957 16.084 60.6277 15.824 60.6917 15.488C60.2997 16.056 59.8957 16.512 59.4797 16.856C59.0637 17.192 58.6837 17.36 58.3397 17.36ZM64.7983 17.528C64.2943 17.528 63.9023 17.392 63.6223 17.12C63.3422 16.848 63.2022 16.5 63.2022 16.076C63.2022 15.612 63.3582 15.112 63.6703 14.576C63.9823 14.032 64.3823 13.58 64.8703 13.22C65.3583 12.852 65.8383 12.668 66.3103 12.668C66.5583 12.668 66.7663 12.732 66.9342 12.86C67.1023 12.98 67.1863 13.184 67.1863 13.472C67.1863 13.856 67.0383 14.22 66.7423 14.564C66.4463 14.9 66.0623 15.176 65.5903 15.392C65.1263 15.608 64.6503 15.744 64.1623 15.8C64.1463 15.88 64.1383 15.972 64.1383 16.076C64.1383 16.284 64.1943 16.492 64.3063 16.7C64.4263 16.908 64.6783 17.012 65.0623 17.012C65.5503 17.012 66.0463 16.816 66.5503 16.424C67.0623 16.024 67.4743 15.528 67.7863 14.936L68.0263 15.128C67.7063 15.848 67.2463 16.428 66.6463 16.868C66.0543 17.308 65.4383 17.528 64.7983 17.528ZM64.2943 15.356C64.5823 15.324 64.9023 15.208 65.2543 15.008C65.6143 14.808 65.9183 14.564 66.1663 14.276C66.4143 13.98 66.5383 13.692 66.5383 13.412C66.5383 13.324 66.5223 13.264 66.4902 13.232C66.4583 13.2 66.4063 13.184 66.3343 13.184C66.1023 13.184 65.8463 13.296 65.5663 13.52C65.2943 13.736 65.0423 14.012 64.8103 14.348C64.5783 14.684 64.4063 15.02 64.2943 15.356Z" fill="black"/>
<g clip-path="url(#clip1)">
<path d="M69.3511 13.8673L69.5793 13.1083L69.0588 12.8742L68.6665 13.4574C68.6665 13.4574 68.8418 14.0115 68.5985 14.4366C68.5986 14.4366 68.8999 13.9742 69.3511 13.8673ZM69.0113 13.4983C69.0778 13.4746 69.1516 13.5086 69.1756 13.574C69.1998 13.6393 69.1654 13.7117 69.0989 13.7354C69.0323 13.7591 68.9585 13.725 68.9346 13.6597C68.9101 13.594 68.9446 13.5217 69.0113 13.4983Z" fill="#010002"/>
<path d="M75.3306 5.21921C73.745 6.40032 71.6254 8.88677 69.7892 11.8212L69.7883 11.82L69.4675 12.3291L69.7778 12.4655L69.9654 12.0333C70.946 10.4452 73.5987 6.302 78.2175 3.68269C78.2175 3.68269 79.9344 2.76585 81.6444 1.46684C81.2281 1.78306 80.418 2.16596 79.9767 2.41678C78.8186 3.07499 77.3992 3.67811 75.3306 5.21921Z" fill="#010002"/>
<path d="M69.6793 9.43305C69.2747 10.6442 69.251 11.5799 69.3733 11.843L69.5834 11.8528C70.2195 10.6786 73.2161 6.45738 75.0185 5.17644C76.8858 3.84921 78.3138 3.0929 79.5105 2.54859C79.9307 2.3575 80.365 2.09236 80.758 1.8246C81.2359 1.48258 81.7215 1.11555 82.1485 0.754107L80.9259 1.47664L81.4926 0.692398L80.4349 1.67201L81.1443 0.582514C79.5832 0.650151 78.1043 1.36049 78.1043 1.36049C77.4952 2.01807 76.9796 3.08532 76.9796 3.08532C76.9889 2.54007 77.3962 1.73278 77.3962 1.73278C77.1179 1.84446 76.055 2.38745 76.055 2.38745C75.529 2.78388 75.3201 3.88111 75.3201 3.88111C75.2441 3.44091 75.62 2.61672 75.62 2.61672C74.122 3.38876 73.0133 4.7713 73.0133 4.7713C72.226 6.15325 72.7674 7.28552 72.5552 7.01059C72.3431 6.73566 72.4364 5.77337 72.4364 5.77337C70.8453 7.16472 70.6525 7.85712 70.6525 7.85712C70.367 8.46745 70.0648 10.1217 70.0648 10.1217C69.9278 9.95927 70.1128 9.09487 70.1128 9.09487C69.7077 9.85559 69.85 10.5949 69.85 10.5949C69.6767 10.5243 69.6793 9.43305 69.6793 9.43305Z" fill="#010002"/>
<path d="M82.1257 1.24684C82.1257 1.24684 81.5128 1.78761 80.7352 2.31733C79.5141 3.19117 78.3447 3.89749 78.3447 3.89749C73.7798 6.31497 71.1044 10.4831 70.2177 11.9138L70.6527 11.9341C70.8122 11.818 71.0474 11.7359 72.0245 11.5018C73.2591 11.206 74.0201 10.5037 74.0201 10.5037C74.0201 10.5037 72.8798 11.0741 72.3591 10.9874C71.8383 10.9008 71.1254 11.0649 71.1254 11.0649C71.1254 11.0649 70.8625 10.9279 72.1968 10.7928C73.5311 10.6576 75.7802 9.27641 75.7802 9.27641C75.7802 9.27641 74.9307 9.57972 74.5475 9.53053C74.1644 9.48134 73.2119 9.46814 73.2119 9.46814C73.849 9.35234 74.4329 9.46285 75.4116 9.1447C76.3902 8.82655 76.3353 8.85528 76.3353 8.85528C77.4422 8.54311 77.9478 7.4339 77.9478 7.4339C77.7558 7.49771 76.3078 7.60667 75.7189 7.40257C75.1298 7.19846 74.1041 7.32714 74.1041 7.32714C75.0808 7.05061 75.2879 7.20584 75.5232 7.20642C75.7588 7.20701 76.5147 7.30464 78.0456 6.85656C79.5765 6.40848 80.034 5.78531 80.034 5.78531L79.0115 5.87362C79.6802 5.79298 80.4486 5.38891 80.4486 5.38891C79.9832 5.49186 79.2643 5.5206 79.2643 5.5206C80.1172 5.37343 80.5996 5.13612 80.5996 5.13612C81.4184 4.57154 81.6417 3.6881 81.6417 3.6881C80.5017 4.01934 79.6232 3.80171 79.6232 3.80171C81.1669 3.77 81.6127 3.39566 81.8306 3.31245C82.0488 3.22902 82.1548 2.84688 82.1548 2.84688C81.3643 3.09062 80.4805 3.09602 80.4805 3.09602C81.4411 2.99275 82.2809 2.54861 82.2809 2.54861L82.3034 2.06581C81.9249 2.25863 81.2684 2.39175 81.2684 2.39175L82.3086 1.78561C82.3807 1.46141 82.1257 1.24684 82.1257 1.24684Z" fill="#010002"/>
<path d="M69.107 12.684L69.6963 12.9526L69.8205 12.6919L69.2313 12.4233L69.107 12.684Z" fill="#010002"/>
</g>
</g>
<defs>
<clipPath id="clip0">
<rect width="85" height="22" fill="white"/>
</clipPath>
<clipPath id="clip1">
<rect width="14.4244" height="14.4244" fill="white" transform="translate(68.673) rotate(2.67432)"/>
</clipPath>
</defs>
</svg>
