<svg height="512" viewBox="0 0 64 64" width="512" xmlns="http://www.w3.org/2000/svg"><g id="Fill_Outline" data-name="Fill Outline"><path d="m9 49h6v12h-6z" fill="#f00"/><path d="m18 44.5h6v16.5h-6z" fill="#fbb03b"/><path d="m27 39.25h6v21.75h-6z" fill="#f8cf26"/><path d="m36 33.25h6v27.75h-6z" fill="#009245"/><path d="m45 25h6v36h-6z" fill="#005c9a"/><path d="m45 39.844 14.664 14.664a2 2 0 0 1 0 2.828 2 2 0 0 1 -2.828 0l-14.836-14.836" fill="#29485a"/><circle cx="30.149" cy="27.821" fill="#0071bc" r="19.149"/><path d="m26 29-8.05 8.05a15.292 15.292 0 0 0 26.55-14.55l-12.5 12.5z" fill="#82d1df"/><path d="m32 25 8.468-8.468a15.306 15.306 0 0 0 -25.333 14.333l11.365-11.365z" fill="#82d1df"/><g fill="#f00"><path d="m44 3 5 5-8.532 8.532a15.346 15.346 0 0 1 4.032 5.968l10-10 4.5 4.5v-14z"/><path d="m40.468 16.532-8.468 8.468-5.5-5.5-11.365 11.365a15.251 15.251 0 0 0 2.815 6.185l8.05-8.05 6 6 12.5-12.5a15.346 15.346 0 0 0 -4.032-5.968z"/></g></g><path d="m15 48h-6a1 1 0 0 0 -1 1v12a1 1 0 0 0 1 1h6a1 1 0 0 0 1-1v-12a1 1 0 0 0 -1-1zm-1 12h-4v-10h4z"/><path d="m60.371 53.8-8.371-8.37v-20.43a1 1 0 0 0 -1-1h-1.08a19.919 19.919 0 0 0 -1.3-4.208l5.88-5.878 3.793 3.793a1 1 0 0 0 1.707-.707v-14a1 1 0 0 0 -1-1h-15a1 1 0 0 0 -.707 1.707l4.293 4.293-4.446 4.446a20.13 20.13 0 0 0 -28.6 28.091l-.244-.244-3.71 3.707h-4.586v2h5a1 1 0 0 0 .707-.293l3.936-3.936q.648.673 1.357 1.284v17.945a1 1 0 0 0 1 1h6a1 1 0 0 0 1-1v-13.722c.333.088.661.187 1 .258v13.464a1 1 0 0 0 1 1h6a1 1 0 0 0 1-1v-13.409c.338-.065.668-.153 1-.236v13.645a1 1 0 0 0 1 1h6a1 1 0 0 0 1-1v-16.086l1.086 1.086h-.086v15a1 1 0 0 0 1 1h6a1 1 0 0 0 1-1v-7.085l4.129 4.129a3 3 0 1 0 4.242-4.244zm-14.034-14.033a20.021 20.021 0 0 0 3.663-8.623v12.286zm3.37-32.474-3.293-3.293h11.586v10.586l-2.793-2.793a1 1 0 0 0 -1.414 0l-21.793 21.793-5.293-5.293a1 1 0 0 0 -1.414 0l-7.209 7.207a14.248 14.248 0 0 1 -1.842-4.33l10.258-10.256 4.793 4.793a1 1 0 0 0 1.414 0l17-17a1 1 0 0 0 0-1.414zm-5.239 20.528a14.3 14.3 0 0 1 -25.18 9.3l6.712-6.707 5.293 5.293a1 1 0 0 0 1.414 0l11.339-11.339a14.318 14.318 0 0 1 .422 3.453zm-28.638 0a14.3 14.3 0 0 1 23.17-11.233l-7 7-4.793-4.793a1 1 0 0 0 -1.414 0l-9.918 9.918c-.018-.298-.045-.591-.045-.892zm-3.83 0a18.127 18.127 0 0 1 29.721-13.956l-1.3 1.3a16.255 16.255 0 1 0 5.239 7.591l1.418-1.418a18.141 18.141 0 1 1 -35.078 6.483zm11 32.179h-4v-15.41a20.031 20.031 0 0 0 4 2.046zm9 0h-4v-12.148a20.349 20.349 0 0 0 2.149.118c.625 0 1.241-.038 1.851-.094zm5 0v-13.255a20.025 20.025 0 0 0 4-1.973v15.228zm13 0h-4v-12.086l4 4zm8.957-3.371a1 1 0 0 1 -1.414 0l-5.543-5.543v-.086h-.086l-8.265-8.265q.742-.672 1.414-1.414l13.894 13.9a1 1 0 0 1 0 1.413z"/><path d="m2 44h2v2h-2z"/></svg>