<?xml version="1.0" standalone="no"?>
<!DOCTYPE svg PUBLIC "-//W3C//DTD SVG 20010904//EN"
 "http://www.w3.org/TR/2001/REC-SVG-20010904/DTD/svg10.dtd">
<svg version="1.0" xmlns="http://www.w3.org/2000/svg"
 width="576.000000pt" height="576.000000pt" viewBox="0 0 576.000000 576.000000"
 preserveAspectRatio="xMidYMid meet">
<metadata>
Created by potrace 1.11, written by Peter Selinger 2001-2013
</metadata>
<g transform="translate(0.000000,576.000000) scale(0.100000,-0.100000)"
fill="#000000" stroke="none">
<path d="M3648 5295 c-2 -2 -30 -6 -63 -9 -47 -5 -212 -40 -280 -59 -96 -28
-287 -120 -377 -183 -142 -99 -95 -55 -807 -754 -205 -201 -445 -436 -534
-523 -384 -376 -451 -444 -463 -474 -11 -25 -14 -187 -14 -805 0 -425 -1 -854
-1 -954 l0 -180 -329 -323 c-181 -177 -335 -337 -344 -356 -21 -43 -20 -80 3
-131 35 -77 130 -114 203 -80 31 15 191 167 569 541 l121 120 181 -2 c100 -2
299 -5 442 -7 1458 -24 1292 -24 1333 1 18 11 212 196 430 411 218 215 480
472 582 572 472 463 643 635 693 698 277 347 391 822 300 1247 -8 39 -17 81
-19 94 -3 13 -9 32 -15 43 -5 10 -7 18 -3 18 3 0 1 7 -6 15 -7 8 -10 15 -7 15
5 0 -20 63 -65 170 -6 14 -11 28 -10 33 1 4 -2 7 -8 7 -5 0 -10 5 -10 10 0 6
-18 40 -40 76 -22 36 -40 68 -40 70 0 2 -7 12 -14 21 -8 10 -33 43 -56 73 -77
104 -208 229 -361 343 -32 24 -267 148 -294 155 -5 1 -48 15 -95 31 -79 28
-182 52 -275 66 -42 6 -322 15 -327 10z m302 -330 c89 -12 205 -46 309 -90 67
-28 184 -94 189 -107 2 -4 8 -8 14 -8 18 0 132 -96 201 -169 160 -170 284
-411 322 -626 24 -137 22 -318 -4 -450 -25 -125 -40 -170 -100 -295 -92 -194
-80 -181 -1204 -1283 -106 -104 -267 -263 -359 -353 l-166 -165 -99 0 c-54 1
-222 4 -373 6 -151 3 -426 7 -610 10 -184 2 -337 5 -340 6 -3 0 -21 0 -40 0
-34 -2 -22 11 271 301 283 280 797 786 1327 1306 600 589 641 631 654 673 39
131 -104 250 -222 185 -22 -11 -236 -215 -477 -453 -241 -237 -517 -508 -613
-603 -96 -94 -200 -196 -230 -225 l-55 -54 1 746 1 746 235 231 c129 127 278
272 329 321 99 94 233 198 243 188 3 -4 6 -1 6 5 0 6 10 14 23 18 12 3 33 14
47 24 14 9 43 23 65 30 22 7 45 16 50 20 6 3 30 13 55 20 59 18 60 18 94 25
16 3 33 8 37 11 4 2 40 7 81 10 40 4 74 8 76 9 6 5 214 -3 262 -10z m-1924
-1966 l-1 -742 -210 -208 c-115 -114 -248 -245 -295 -290 l-85 -83 -3 744 -2
745 292 287 c161 158 295 288 299 288 3 0 5 -334 5 -741z"/>
</g>
</svg>
