<svg width="130" height="45" viewBox="0 0 130 45" fill="none" xmlns="http://www.w3.org/2000/svg">
<path d="M40.452 22.836H34.446C34.4633 22.576 34.5153 22.2813 34.602 21.952C34.706 21.6227 34.8707 21.3107 35.096 21.016C35.3387 20.7213 35.6507 20.4787 36.032 20.288C36.4307 20.08 36.9247 19.976 37.514 19.976C38.4153 19.976 39.0827 20.2187 39.516 20.704C39.9667 21.1893 40.2787 21.9 40.452 22.836ZM34.446 25.176H44.144C44.2133 24.136 44.1267 23.1393 43.884 22.186C43.6413 21.2327 43.2427 20.3833 42.688 19.638C42.1507 18.8927 41.4573 18.3033 40.608 17.87C39.7587 17.4193 38.762 17.194 37.618 17.194C36.5953 17.194 35.6593 17.376 34.81 17.74C33.978 18.104 33.2587 18.6067 32.652 19.248C32.0453 19.872 31.5773 20.6173 31.248 21.484C30.9187 22.3507 30.754 23.2867 30.754 24.292C30.754 25.332 30.91 26.2853 31.222 27.152C31.5513 28.0187 32.0107 28.764 32.6 29.388C33.1893 30.012 33.9087 30.4973 34.758 30.844C35.6073 31.1733 36.5607 31.338 37.618 31.338C39.1433 31.338 40.4433 30.9913 41.518 30.298C42.5927 29.6047 43.39 28.452 43.91 26.84H40.66C40.5387 27.256 40.2093 27.6547 39.672 28.036C39.1347 28.4 38.4933 28.582 37.748 28.582C36.708 28.582 35.9107 28.3133 35.356 27.776C34.8013 27.2387 34.498 26.372 34.446 25.176ZM46.4377 17.558V31H50.1297V23.2C50.1297 22.5413 50.225 22.0127 50.4157 21.614C50.6064 21.198 50.8317 20.886 51.0917 20.678C51.369 20.4527 51.6464 20.3053 51.9237 20.236C52.2184 20.1493 52.4524 20.106 52.6257 20.106C53.215 20.106 53.657 20.21 53.9517 20.418C54.2637 20.6087 54.4804 20.8687 54.6017 21.198C54.7404 21.5273 54.8184 21.8913 54.8357 22.29C54.853 22.6713 54.8617 23.0613 54.8617 23.46V31H58.5537V23.512C58.5537 23.096 58.5797 22.6887 58.6317 22.29C58.701 21.874 58.8224 21.51 58.9957 21.198C59.1864 20.8687 59.4377 20.6087 59.7497 20.418C60.079 20.21 60.5037 20.106 61.0237 20.106C61.5437 20.106 61.951 20.1927 62.2457 20.366C62.5577 20.5393 62.7917 20.7733 62.9477 21.068C63.1037 21.3627 63.199 21.7093 63.2337 22.108C63.2684 22.5067 63.2857 22.9313 63.2857 23.382V31H66.9777V22.004C66.9777 21.1373 66.8564 20.4007 66.6137 19.794C66.371 19.17 66.033 18.6673 65.5997 18.286C65.1664 17.9047 64.6464 17.6273 64.0397 17.454C63.433 17.2807 62.7744 17.194 62.0637 17.194C61.1277 17.194 60.313 17.4193 59.6197 17.87C58.9437 18.3207 58.4064 18.8407 58.0077 19.43C57.6437 18.598 57.1064 18.0173 56.3957 17.688C55.7024 17.3587 54.931 17.194 54.0817 17.194C53.1977 17.194 52.409 17.3847 51.7157 17.766C51.0397 18.1473 50.459 18.6847 49.9737 19.378H49.9217V17.558H46.4377ZM70.0002 17.558V31H73.6922V23.2C73.6922 22.5413 73.7875 22.0127 73.9782 21.614C74.1689 21.198 74.3942 20.886 74.6542 20.678C74.9315 20.4527 75.2089 20.3053 75.4862 20.236C75.7809 20.1493 76.0149 20.106 76.1882 20.106C76.7775 20.106 77.2195 20.21 77.5142 20.418C77.8262 20.6087 78.0429 20.8687 78.1642 21.198C78.3029 21.5273 78.3809 21.8913 78.3982 22.29C78.4155 22.6713 78.4242 23.0613 78.4242 23.46V31H82.1162V23.512C82.1162 23.096 82.1422 22.6887 82.1942 22.29C82.2635 21.874 82.3849 21.51 82.5582 21.198C82.7489 20.8687 83.0002 20.6087 83.3122 20.418C83.6415 20.21 84.0662 20.106 84.5862 20.106C85.1062 20.106 85.5135 20.1927 85.8082 20.366C86.1202 20.5393 86.3542 20.7733 86.5102 21.068C86.6662 21.3627 86.7615 21.7093 86.7962 22.108C86.8309 22.5067 86.8482 22.9313 86.8482 23.382V31H90.5402V22.004C90.5402 21.1373 90.4189 20.4007 90.1762 19.794C89.9335 19.17 89.5955 18.6673 89.1622 18.286C88.7289 17.9047 88.2089 17.6273 87.6022 17.454C86.9955 17.2807 86.3369 17.194 85.6262 17.194C84.6902 17.194 83.8755 17.4193 83.1822 17.87C82.5062 18.3207 81.9689 18.8407 81.5702 19.43C81.2062 18.598 80.6689 18.0173 79.9582 17.688C79.2649 17.3587 78.4935 17.194 77.6442 17.194C76.7602 17.194 75.9715 17.3847 75.2782 17.766C74.6022 18.1473 74.0215 18.6847 73.5362 19.378H73.4842V17.558H70.0002ZM93.5627 17.558V31H97.2547V23.2C97.2547 22.5413 97.35 22.0127 97.5407 21.614C97.7314 21.198 97.9567 20.886 98.2167 20.678C98.494 20.4527 98.7714 20.3053 99.0487 20.236C99.3434 20.1493 99.5774 20.106 99.7507 20.106C100.34 20.106 100.782 20.21 101.077 20.418C101.389 20.6087 101.605 20.8687 101.727 21.198C101.865 21.5273 101.943 21.8913 101.961 22.29C101.978 22.6713 101.987 23.0613 101.987 23.46V31H105.679V23.512C105.679 23.096 105.705 22.6887 105.757 22.29C105.826 21.874 105.947 21.51 106.121 21.198C106.311 20.8687 106.563 20.6087 106.875 20.418C107.204 20.21 107.629 20.106 108.149 20.106C108.669 20.106 109.076 20.1927 109.371 20.366C109.683 20.5393 109.917 20.7733 110.073 21.068C110.229 21.3627 110.324 21.7093 110.359 22.108C110.393 22.5067 110.411 22.9313 110.411 23.382V31H114.103V22.004C114.103 21.1373 113.981 20.4007 113.739 19.794C113.496 19.17 113.158 18.6673 112.725 18.286C112.291 17.9047 111.771 17.6273 111.165 17.454C110.558 17.2807 109.899 17.194 109.189 17.194C108.253 17.194 107.438 17.4193 106.745 17.87C106.069 18.3207 105.531 18.8407 105.133 19.43C104.769 18.598 104.231 18.0173 103.521 17.688C102.827 17.3587 102.056 17.194 101.207 17.194C100.323 17.194 99.534 17.3847 98.8407 17.766C98.1647 18.1473 97.584 18.6847 97.0987 19.378H97.0467V17.558H93.5627ZM123.651 32.664L129.267 17.558H125.445L122.507 26.762H122.455L119.413 17.558H115.487L120.193 30.168C120.297 30.428 120.349 30.7053 120.349 31C120.349 31.3987 120.228 31.7627 119.985 32.092C119.76 32.4213 119.405 32.612 118.919 32.664C118.555 32.6813 118.191 32.6727 117.827 32.638C117.463 32.6033 117.108 32.5687 116.761 32.534V35.576C117.143 35.6107 117.515 35.6367 117.879 35.654C118.261 35.6887 118.642 35.706 119.023 35.706C120.289 35.706 121.277 35.472 121.987 35.004C122.698 34.536 123.253 33.756 123.651 32.664Z" fill="#15B4EF"/>
<path d="M8.524 34.822C1.334 24.4 0 23.33 0 19.5C0 16.9804 1.00089 14.5641 2.78249 12.7825C4.56408 11.0009 6.98044 10 9.5 10C12.0196 10 14.4359 11.0009 16.2175 12.7825C17.9991 14.5641 19 16.9804 19 19.5C19 23.33 17.666 24.4 10.476 34.822C10.3666 34.9796 10.2207 35.1084 10.0508 35.1973C9.8808 35.2862 9.69183 35.3327 9.5 35.3327C9.30817 35.3327 9.1192 35.2862 8.94924 35.1973C8.77927 35.1084 8.63337 34.9796 8.524 34.822V34.822Z" fill="#15B4EF"/>
<path d="M13.318 21.234L14.152 17.621C14.1655 17.5595 14.165 17.4957 14.1505 17.4344C14.136 17.3731 14.1078 17.3159 14.0682 17.267C14.0285 17.2181 13.9783 17.1787 13.9213 17.1519C13.8643 17.1251 13.802 17.1114 13.739 17.112H6.809L6.647 16.333C6.62657 16.2383 6.57417 16.1535 6.49859 16.0929C6.42302 16.0322 6.32889 15.9994 6.232 16H4.423C4.36784 15.9996 4.31315 16.0101 4.26204 16.0308C4.21093 16.0516 4.16441 16.0822 4.12513 16.1209C4.08585 16.1596 4.05459 16.2057 4.03312 16.2565C4.01165 16.3073 4.00039 16.3619 4 16.417V16.695C4.00039 16.7502 4.01165 16.8047 4.03312 16.8555C4.05459 16.9063 4.08585 16.9524 4.12513 16.9911C4.16441 17.0298 4.21093 17.0604 4.26204 17.0812C4.31315 17.1019 4.36784 17.1124 4.423 17.112H5.656L6.9 23.077C6.74917 23.1606 6.62333 23.2828 6.53544 23.4311C6.44756 23.5795 6.40081 23.7486 6.4 23.921C6.4 24.183 6.50409 24.4343 6.68938 24.6196C6.87466 24.8049 7.12597 24.909 7.388 24.909C7.65003 24.909 7.90134 24.8049 8.08662 24.6196C8.27191 24.4343 8.376 24.183 8.376 23.921C8.37559 23.7909 8.3488 23.6622 8.29723 23.5428C8.24567 23.4233 8.17041 23.3155 8.076 23.226H11.776C11.6816 23.3155 11.6063 23.4233 11.5548 23.5428C11.5032 23.6622 11.4764 23.7909 11.476 23.921C11.4741 24.0977 11.5196 24.2716 11.6078 24.4247C11.696 24.5778 11.8236 24.7044 11.9773 24.7914C12.1311 24.8784 12.3053 24.9226 12.482 24.9194C12.6586 24.9162 12.8311 24.8657 12.9816 24.7731C13.1321 24.6805 13.255 24.5493 13.3375 24.3931C13.42 24.2369 13.4592 24.0614 13.4508 23.885C13.4425 23.7085 13.387 23.5375 13.2901 23.3898C13.1932 23.242 13.0585 23.123 12.9 23.045L13 22.623C13.0135 22.5615 13.013 22.4977 12.9985 22.4364C12.984 22.3751 12.9558 22.3179 12.9162 22.269C12.8765 22.2201 12.8263 22.1807 12.7693 22.1539C12.7123 22.1271 12.65 22.1134 12.587 22.114H7.848L7.733 21.558H12.905C13.0003 21.5586 13.093 21.5269 13.168 21.468C13.243 21.4092 13.2959 21.3267 13.318 21.234Z" fill="white"/>
</svg>
